# AST/ASF file generated using VICON BodyLanguage
# -----------------------------------------------
:version 1.10
:name VICON
:units
  mass 1.0
  length 0.45
  angle deg
:documentation
   .ast/.asf automatically generated from VICON data using
   VICON BodyBuilder and BodyLanguage model FoxedUp or BRILLIANT.MOD
:root
   order TX TY TZ RX RY RZ
   axis XYZ
   position 0 0 0  
   orientation 0 0 0 
:bonedata
  begin
     id 1 
     name lhipjoint
     direction 0.575328 -0.747301 0.332475 
     length 2.40933 
     axis 0 0 0  XYZ
  end
  begin
     id 2 
     name lfemur
     direction 0.34202 -0.939693 0  
     length 7.31453  
     axis 0 0 20  XYZ
    dof rx ry rz
    limits (-160.0 20.0)
           (-70.0 70.0)
           (-60.0 70.0)
  end
  begin
     id 3 
     name ltibia
     direction 0.34202 -0.939693 0   
     length 7.82185   
     axis 0 0 20   XYZ
    dof rx
    limits (-10.0 170.0)
  end
  begin
     id 4 
     name lfoot
     direction 0.0795993 -0.218697 0.972541   
     length 2.19173   
     axis -90 7.62852e-016 20   XYZ
    dof rx rz
    limits (-45.0 90.0)
           (-70.0 20.0)
  end
  begin
     id 5 
     name ltoes
     direction 1.53537e-011 -4.21894e-011 1   
     length 1.10023   
     axis -90 7.62852e-016 20   XYZ
    dof rx
    limits (-90.0 20.0)
  end
  begin
     id 6 
     name rhipjoint
     direction -0.513884 -0.783789 0.348708   
     length 2.29716  
     axis 0 0 0  XYZ 
  end
  begin
     id 7 
     name rfemur
     direction -0.34202 -0.939693 0   
     length 7.59573   
     axis 0 0 -20   XYZ
    dof rx ry rz
    limits (-160.0 20.0)
           (-70.0 70.0)
           (-70.0 60.0)
  end
  begin
     id 8 
     name rtibia
     direction -0.34202 -0.939693 0   
     length 7.66402   
     axis 0 0 -20   XYZ
    dof rx
    limits (-10.0 170.0)
 end
 begin
     id 9 
     name rfoot
     direction -0.137793 -0.378584 0.915253   
     length 2.27056  
     axis -90 -7.62852e-016 -20   XYZ
    dof rx rz
    limits (-45.0 90.0)
           (-20.0 70.0)
  end
  begin
     id 10 
     name rtoes
     direction -1.53493e-011 -4.22159e-011 1   
     length 1.11766   
     axis -90 -7.62852e-016 -20   XYZ
    dof rx
    limits (-90.0 20.0)
  end
  begin
     id 11 
     name lowerback
     direction -0.00732775 0.998356 -0.05685   
     length 2.16513   
     axis 0 0 0   XYZ
    dof rx ry rz
    limits (-20.0 45.0)
           (-30.0 30.0)
           (-30.0 30.0)
  end
  begin
     id 12 
     name upperback
     direction 0.0218081 0.999627 -0.0164647   
     length 2.16755   
     axis 0 0 0   XYZ
    dof rx ry rz
    limits (-20.0 45.0)
           (-30.0 30.0)
           (-30.0 30.0)
  end
  begin
     id 13 
     name thorax
     direction 0.02365 0.999661 0.0108914   
     length 2.16932   
     axis 0 0 0   XYZ
    dof rx ry rz
    limits (-20.0 45.0)
           (-30.0 30.0)
           (-30.0 30.0)
  end
  begin
     id 14 
     name lowerneck
     direction -0.0523929 0.978385 0.200044   
     length 1.63877   
     axis 0 0 0   XYZ
    dof rx ry rz
    limits (-20.0 45.0)
           (-30.0 30.0)
           (-30.0 30.0)
  end
  begin
     id 15 
     name upperneck
     direction 0.0448674 0.981321 -0.187074   
     length 1.69014   
     axis 0 0 0   XYZ
    dof rx ry rz
    limits (-20.0 45.0)
           (-30.0 30.0)
           (-30.0 30.0)
  end
  begin
     id 16
     name head
     direction 0.0199089 0.996118 -0.0857429  
     length 1.70094  
     axis 0 0 0   XYZ
    dof rx ry rz
    limits (-20.0 45.0)
           (-30.0 30.0)
           (-30.0 30.0)
  end
  begin
     id 17 
     name lclavicle
     direction 0.940366 0.30191 -0.156722  
     length 3.37521  
     axis 0 0 0   XYZ
    dof ry rz
    limits (-20.0 10.0)
           (0.0 20.0)
  end
  begin
     id 18 
     name lhumerus
     direction 1 -4.4897e-011 -1.7911e-027   
     length 5.25287   
     axis 180 -30 -90   XYZ
    dof rx ry rz
    limits (-60.0 90.0)
           (-90.0 90.0)
           (-90.0 90.0)
  end
  begin
     id 19
     name lradius
     direction 1 -4.48951e-011 1.04424e-027   
     length 3.51014   
     axis 180 -30 -90   XYZ
    dof rx
    limits (-10.0 170.0)
  end
  begin
     id 20
     name lwrist
     direction 1 -4.48997e-011 -9.5942e-028   
     length 1.75507   
     axis 8.48502e-016 90 90   XYZ
    dof ry
    limits (-180.0 0.0)
 end
  begin
     id 21 
     name lhand
     direction 1 -4.48831e-011 -1.90777e-027   
     length 0.706179   
     axis 1.22306e-015 90 90   XYZ
    dof rx rz
    limits (-90.0 90.0)
           (-45.0 45.0)
  end
  begin
     id 22 
     name lfingers
     direction 1 -4.49108e-011 -3.85244e-027   
     length 0.569339   
     axis 2.44611e-015 90 90   XYZ
    dof rx
    limits (0.0 90.0)
  end
  begin
     id 23
     name lthumb
     direction 0.707107 -6.34953e-011 0.707107   
     length 0.817461   
     axis -90 45 -1.62303e-014   XYZ
    dof rx rz
    limits (-45.0 45.0)
           (-45.0 45.0)
  end
  begin
     id 24 
     name rclavicle
     direction -0.905329 0.382405 -0.184787   
     length 3.30787  
     axis 0 0 0   XYZ 
    dof ry rz
    limits (-10.0 20.0)
           (-20.0 0.0)
  end
  begin
     id 25 
     name rhumerus
     direction -1 -4.48953e-011 -9.15316e-029  
     length 5.28721   
     axis 180 30 90   XYZ
    dof rx ry rz
    limits (-90.0 60.0)
           (-90.0 90.0)
           (-90.0 90.0)
  end
  begin
     id 26 
     name rradius
     direction -1 -4.48987e-011 9.37824e-028   
     length 3.50544   
     axis 180 30 90   XYZ
    dof rx
    limits (-10.0 170.0)
  end
  begin
     id 27 
     name rwrist
     direction -1 -4.48967e-011 -9.58414e-028   
     length 1.75272   
     axis 8.48502e-016 -90 -90   XYZ
    dof ry
    limits (-180.0 0.0)
  end
  begin
     id 28
     name rhand
     direction -1 -4.48904e-011 -1.91266e-027   
     length 0.884996   
     axis 1.22306e-015 -90 -90   XYZ
    dof rx rz
    limits (-90.0 90.0)
           (-45.0 45.0)
  end
  begin
     id 29
     name rfingers
     direction -1 -4.4909e-011 -3.85015e-027   
     length 0.713507   
     axis 2.44611e-015 -90 -90   XYZ
    dof rx
    limits (0.0 90.0)
  end
  begin
     id 30
     name rthumb
     direction -0.707107 -6.34853e-011 0.707107   
     length 1.02446   
     axis -90 -45 1.62303e-014   XYZ
    dof rx rz
    limits (-45.0 45.0)
           (-45.0 45.0)
  end
:hierarchy
  begin
    root lhipjoint rhipjoint lowerback
    lhipjoint lfemur
    lfemur ltibia
    ltibia lfoot
    lfoot ltoes
    rhipjoint rfemur
    rfemur rtibia
    rtibia rfoot
    rfoot rtoes
    lowerback upperback
    upperback thorax
    thorax lowerneck lclavicle rclavicle
    lowerneck upperneck
    upperneck head
    lclavicle lhumerus
    lhumerus lradius
    lradius lwrist
    lwrist lhand lthumb
    lhand lfingers
    rclavicle rhumerus
    rhumerus rradius
    rradius rwrist
    rwrist rhand rthumb
    rhand rfingers
  end

#!OML:ASF F:\twosubjects\two\Thursday\Session 1\justin.ASF
:FULLY-SPECIFIED
:DEGREES
1
root 7.68405 9.12696 -21.2121 -28.1102 -5.19331 0.460522
lowerback 36.0795 1.50937 -1.08656
upperback 13.8138 1.50952 1.10631
thorax -2.92124 0.620132 1.22344
lowerneck -20.1949 -3.4479 -9.55418
upperneck 11.7226 -3.6059 9.56846
head 7.24576 -1.28595 4.29095
rclavicle -1.0138e-014 2.5842e-015
rhumerus 5.56117 15.6469 -77.8942
rradius 69.9761
rwrist 14.3537
rhand -3.79433 18.839
rfingers 7.12502
rthumb 21.9515 -9.9355
lclavicle -1.0138e-014 2.5842e-015
lhumerus 5.2232 -12.8744 83.6586
lradius 64.6717
lwrist -27.8125
lhand -7.85239 38.6623
lfingers 7.12502
lthumb 18.0509 67.8446
rfemur -66.892 -24.1495 7.22263
rtibia 106.212
rfoot -13.8331 10.593
rtoes -9.23566
lfemur -60.7741 20.5155 4.33472
ltibia 103.684
lfoot -13.5109 -18.3198
ltoes -16.4377
2
root 7.68625 9.13712 -21.2144 -28.0126 -5.38356 0.402164
lowerback 35.9575 2.06495 -0.493711
upperback 12.88 2.40813 0.846517
thorax -3.88583 1.10644 0.324327
lowerneck -14.8698 -3.28468 -8.04968
upperneck 9.48441 -4.04584 9.72008
head 5.66366 -1.56671 4.02736
rclavicle 6.11263e-015 -1.65985e-014
rhumerus 2.28191 13.9793 -78.5029
rradius 70.8512
rwrist 14.4612
rhand -3.27696 18.4855
rfingers 7.12502
rthumb 22.4481 -10.2299
lclavicle 6.11263e-015 -1.65985e-014
lhumerus 3.19446 -16.2921 83.3355
lradius 65.1587
lwrist -27.1005
lhand -7.22832 39.3071
lfingers 7.12502
lthumb 18.6512 68.4329
rfemur -66.944 -24.0538 7.2437
rtibia 106.261
rfoot -14.6535 10.5154
rtoes -5.04716
lfemur -60.615 20.3655 4.77934
ltibia 103.387
lfoot -12.3725 -19.2461
ltoes -13.191
3
root 7.6891 9.15289 -21.2231 -27.95 -5.47306 0.281125
lowerback 36.4722 2.04648 -0.0327976
upperback 12.6355 2.52893 0.68451
thorax -4.16641 1.18425 -0.134635
lowerneck -13.9888 -3.26124 -7.38082
upperneck 8.46837 -4.12276 9.62519
head 5.19287 -1.61944 3.87631
rclavicle -1.83876e-015 1.39149e-015
rhumerus 1.66242 14.0085 -78.2488
rradius 71.3969
rwrist 14.2231
rhand -2.89523 18.1299
rfingers 7.12502
rthumb 22.8145 -10.5409
lclavicle -1.83876e-015 1.39149e-015
lhumerus 3.02954 -18.1721 82.3507
lradius 65.5956
lwrist -26.2107
lhand -6.83295 40.7867
lfingers 7.12502
lthumb 19.0315 69.8756
rfemur -66.8777 -24.0599 7.24479
rtibia 106.469
rfoot -15.7475 10.1112
rtoes 1.28051
lfemur -60.424 20.0646 5.2734
ltibia 103.154
lfoot -11.7779 -20.019
ltoes -13.1121
4
root 7.68749 9.15842 -21.2187 -27.7691 -5.40886 0.326351
lowerback 36.7864 2.12913 0.101129
upperback 12.4525 2.6745 0.592187
thorax -4.46297 1.26159 -0.363001
lowerneck -13.5473 -3.33163 -6.45824
upperneck 7.97147 -4.29914 8.92604
head 4.94453 -1.73786 3.48622
rclavicle -2.73826e-014 9.0447e-015
rhumerus 1.1178 14.2009 -77.7859
rradius 71.759
rwrist 13.9554
rhand -2.85665 17.7567
rfingers 7.12502
rthumb 22.8515 -10.9095
lclavicle -2.73826e-014 9.0447e-015
lhumerus 2.84268 -20.3925 81.2615
lradius 66.183
lwrist -25.3183
lhand -7.77908 41.4394
lfingers 7.12502
lthumb 18.1214 70.6153
rfemur -67.1352 -24.4487 7.17691
rtibia 106.945
rfoot -16.856 9.1639
rtoes 3.41481
lfemur -60.8599 20.0615 5.57154
ltibia 103.186
lfoot -11.7721 -21.3902
ltoes -16.3256
5
root 7.68173 9.17428 -21.2176 -27.5896 -5.25391 0.534702
lowerback 37.188 2.34997 -0.113796
upperback 12.2035 2.87958 0.608153
thorax -4.87873 1.35332 -0.323049
lowerneck -13.1272 -3.42667 -6.17074
upperneck 7.66015 -4.46373 8.78407
head 4.78244 -1.83242 3.38235
rclavicle -1.46604e-014 3.34952e-014
rhumerus 0.460176 14.681 -77.0227
rradius 72.1755
rwrist 13.6251
rhand -3.42181 17.2053
rfingers 7.12502
rthumb 22.3091 -11.5268
lclavicle -1.46604e-014 3.34952e-014
lhumerus 2.5184 -22.232 80.6371
lradius 66.8667
lwrist -24.5381
lhand -9.22566 40.9937
lfingers 7.12502
lthumb 16.7292 70.2929
rfemur -67.2936 -24.9825 6.84385
rtibia 107.47
rfoot -17.177 8.11839
rtoes -3.07827
lfemur -61.1237 19.7558 5.79534
ltibia 103.056
lfoot -12.2957 -23.3152
ltoes -19.0257
6
root 7.6773 9.20163 -21.2236 -27.2833 -5.05129 0.752854
lowerback 37.6497 2.53473 -0.262887
upperback 11.8966 3.05373 0.54039
thorax -5.37054 1.4342 -0.399808
lowerneck -13.1572 -3.53807 -5.88519
upperneck 7.71467 -4.66732 8.78309
head 4.81365 -1.92183 3.31733
rclavicle -7.70291e-015 1.2424e-014
rhumerus -0.341342 15.2592 -76.2707
rradius 72.8675
rwrist 13.2709
rhand -3.97725 16.6851
rfingers 7.12502
rthumb 21.7758 -12.1099
lclavicle -7.70291e-015 1.2424e-014
lhumerus 2.09227 -24.0915 79.9449
lradius 67.7409
lwrist -23.8002
lhand -10.2259 41.5048
lfingers 7.12502
lthumb 15.7661 70.8827
rfemur -67.4645 -25.5139 6.34996
rtibia 107.932
rfoot -17.4939 7.18492
rtoes -5.34192
lfemur -61.2544 19.1827 5.92131
ltibia 102.601
lfoot -12.811 -25.3209
ltoes -19.7986
7
root 7.6705 9.22126 -21.22 -26.9125 -4.89096 1.23355
lowerback 38.0139 2.82166 -0.554002
upperback 11.6873 3.28105 0.268804
thorax -5.71563 1.54564 -0.634095
lowerneck -13.3351 -3.63256 -5.34071
upperneck 7.53232 -4.8794 8.83502
head 4.79208 -2.00414 3.22411
rclavicle 1.53313e-014 -1.70458e-014
rhumerus -1.09543 15.7136 -75.6138
rradius 73.7613
rwrist 12.9648
rhand -4.29294 16.3311
rfingers 7.12502
rthumb 21.4726 -12.4988
lclavicle 1.53313e-014 -1.70458e-014
lhumerus 1.86166 -26.4878 78.6621
lradius 68.8194
lwrist -22.9638
lhand -10.6593 42.813
lfingers 7.12502
lthumb 15.3487 72.2233
rfemur -67.8914 -25.8717 5.51522
rtibia 108.554
rfoot -17.6028 6.55471
rtoes -3.54322
lfemur -61.3449 18.9818 5.90192
ltibia 102.106
lfoot -13.2593 -27.5204
ltoes -20.0632
8
root 7.66156 9.24464 -21.2164 -26.7176 -4.94779 1.64574
lowerback 38.5427 3.13962 -0.794244
upperback 11.3856 3.55709 0.0239584
thorax -6.21353 1.67751 -0.896308
lowerneck -12.3756 -3.66174 -4.78118
upperneck 6.48608 -4.98847 8.95441
head 4.31199 -2.07716 3.17168
rclavicle 3.84338e-014 -1.66979e-014
rhumerus -2.07037 16.5904 -74.9122
rradius 74.5126
rwrist 12.452
rhand -4.26848 16.223
rfingers 7.12502
rthumb 21.4961 -12.6042
lclavicle 3.84338e-014 -1.66979e-014
lhumerus 1.45499 -29.1809 77.1528
lradius 70.0575
lwrist -21.6866
lhand -10.1868 43.808
lfingers 7.12502
lthumb 15.8038 73.1829
rfemur -68.0442 -25.8559 4.59096
rtibia 109.261
rfoot -17.905 5.97329
rtoes -0.721954
lfemur -61.0353 19.08 6.2789
ltibia 101.638
lfoot -13.7055 -29.8274
ltoes -19.1504
9
root 7.65816 9.27592 -21.2185 -26.4538 -5.16872 1.34434
lowerback 39.008 3.16998 -0.206118
upperback 11.0257 3.8029 -0.0504859
thorax -6.7254 1.799 -1.39911
lowerneck -10.9815 -3.75159 -4.10778
upperneck 5.31995 -5.1441 8.68286
head 3.71498 -2.20942 2.98637
rclavicle 1.60208e-014 -4.2366e-015
rhumerus -3.25232 17.6544 -74.131
rradius 75.1992
rwrist 11.556
rhand -3.60266 16.4834
rfingers 7.12502
rthumb 22.1355 -12.2694
lclavicle 1.60208e-014 -4.2366e-015
lhumerus 1.01836 -32.0836 75.57
lradius 71.2575
lwrist -20.2237
lhand -9.63652 44.2038
lfingers 7.12502
lthumb 16.3336 73.536
rfemur -67.9384 -25.7458 4.27727
rtibia 109.889
rfoot -17.9606 5.20225
rtoes 1.54824
lfemur -60.899 19.1408 7.44374
ltibia 101.207
lfoot -13.1432 -32.144
ltoes -14.3808
10
root 7.65591 9.30755 -21.2231 -26.1361 -5.40263 0.785832
lowerback 39.5085 3.09972 0.761371
upperback 10.7391 4.07939 -0.111748
thorax -7.14007 1.9344 -2.09627
lowerneck -10.6796 -3.92997 -3.61449
upperneck 5.06593 -5.43324 8.57262
head 3.59135 -2.35962 2.85737
rclavicle 4.9075e-015 -1.13307e-014
rhumerus -4.46998 18.4526 -73.2973
rradius 76.169
rwrist 10.3623
rhand -3.79021 16.1512
rfingers 7.12502
rthumb 21.9554 -12.6229
lclavicle 4.9075e-015 -1.13307e-014
lhumerus 0.900461 -35.0692 73.7708
lradius 72.4304
lwrist -18.7839
lhand -10.0148 44.0036
lfingers 7.12502
lthumb 15.9694 73.3653
rfemur -67.7243 -25.609 4.10713
rtibia 110.478
rfoot -17.8161 4.56017
rtoes 2.72733
lfemur -60.9565 19.0955 8.82194
ltibia 100.769
lfoot -12.0919 -33.4049
ltoes -10.0223
11
root 7.6511 9.33311 -21.228 -25.8311 -5.53216 0.449987
lowerback 40.4107 3.12658 1.40491
upperback 10.2277 4.36216 -0.215132
thorax -7.93634 2.0523 -2.70063
lowerneck -10.912 -4.06908 -3.05155
upperneck 5.56723 -5.71589 8.38686
head 3.77735 -2.47867 2.68302
rclavicle -2.11954e-014 3.07122e-014
rhumerus -5.89055 19.4446 -72.4349
rradius 77.2896
rwrist 9.00619
rhand -5.36351 14.9578
rfingers 7.12502
rthumb 20.4441 -13.9859
lclavicle -2.11954e-014 3.07122e-014
lhumerus 0.479507 -37.9646 72.0844
lradius 73.9308
lwrist -17.1719
lhand -10.1718 43.6691
lfingers 7.12502
lthumb 15.8182 73.0428
rfemur -67.4645 -25.5437 3.51583
rtibia 111.13
rfoot -17.6403 4.09387
rtoes 3.18556
lfemur -61.0097 19.1357 9.80851
ltibia 100.262
lfoot -12.1226 -33.3605
ltoes -10.8175
